<?xml version="1.0" encoding="utf-8"?>
<!DOCTYPE svg PUBLIC "-//W3C//DTD SVG 1.0//EN" "http://www.w3.org/TR/2001/REC-SVG-20010904/DTD/svg10.dtd">
<svg version="1.0" xmlns="http://www.w3.org/2000/svg" width="3840px" height="2560px" viewBox="0 0 3840 2560" preserveAspectRatio="xMidYMid meet">
 <g fill="#000000">
  <path d="M0 1280 l0 -1280 1920 0 1920 0 0 1280 0 1280 -1920 0 -1920 0 0 -1280z m1946 195.9 c19.1 -2 37.1 -5.8 66.5 -13.9 1.7 -0.4 8.2 -2.7 14.5 -5 6.3 -2.3 12.6 -4.5 14 -5 2.6 -0.7 29.4 -14.2 36.5 -18.3 13.5 -7.7 18.1 -10.5 27.5 -16.7 5.8 -3.9 11.5 -7.5 12.8 -8 1.3 -0.5 2.2 -1.8 2.2 -3 0 -2.5 0.7 -2.9 -12.1 7.1 -10.1 7.9 -34.2 22.3 -49.6 29.6 -6.2 2.9 -11.7 5.3 -12.3 5.3 -0.6 0 -1.8 0.4 -2.8 1 -7.8 4.4 -43.3 15.8 -59.7 19 -14.5 2.9 -29.2 4.9 -43.7 6 -34.2 2.4 -71.2 -1.9 -108.1 -12.5 -3.2 -1 -6.1 -1.5 -6.4 -1.2 -0.3 0.3 0.8 0.9 2.3 1.3 1.6 0.3 5.4 1.5 8.4 2.4 3 1 9.6 2.8 14.5 3.9 5 1.2 9.9 2.4 11 2.6 21.8 5.5 60.3 8 84.5 5.4z m11 -15.8 c26.1 -3.5 58.7 -13.4 83.5 -25.5 18.3 -8.9 43.5 -23.9 53 -31.5 3.9 -3.1 8.8 -6.9 11 -8.5 5.2 -3.9 25.1 -24 35.1 -35.6 4.4 -5 10.4 -11.9 13.4 -15.4 3 -3.4 11 -12.6 17.7 -20.3 26 -30 42.3 -40.4 78.3 -50.3 12.2 -3.3 35.4 -6.7 62 -9 17 -1.5 96.4 -4 127.8 -4 27.2 0 27.2 0 27.2 2.2 0 2.1 0.1 2.1 15.3 1.4 46.8 -2.1 116.4 -3.2 122.6 -2 2.2 0.5 3.1 1.2 3.1 2.7 0 1.9 0.4 1.9 7.3 1.3 23.7 -2.1 118.1 -2.6 591.2 -3.2 284.9 -0.3 518.3 -0.8 518.7 -1 1 -0.6 1 -15.5 0 -17.1 -0.5 -0.8 -186.7 -1.2 -752 -1.5 -652.9 -0.4 -751.5 -0.6 -752.3 -1.9 -1.5 -2.5 -1 -8.5 1 -11 l1.9 -2.4 334.9 0.3 c184.1 0.2 521.8 0.5 750.3 0.5 l415.5 0.2 0.5 -6 c0.3 -3.3 0.3 -7.5 0.1 -9.2 l-0.3 -3.3 -287.2 0 c-535.6 -0.1 -776.1 -1 -784.9 -2.9 -2.8 -0.7 -3.7 -0.6 -3.7 0.4 0 1 -3 1.4 -12.2 1.7 -11.6 0.4 -85.8 -0.6 -122 -1.6 -13.3 -0.3 -16.8 -0.2 -16.8 0.8 0 2.2 -14.4 2.7 -42.5 1.6 -14.3 -0.5 -41.5 -1.4 -60.5 -2 -43.7 -1.3 -74.6 -2.7 -86.9 -4 -5.3 -0.6 -14.3 -1.5 -20.1 -2.1 -31.3 -3.3 -59.3 -12.2 -79 -25 -16.6 -10.8 -25.2 -19.9 -56.5 -60.4 -21.7 -28.1 -31.9 -39.7 -49.8 -56.8 -9.2 -8.7 -17.8 -16.7 -19.2 -17.8 -1.9 -1.6 -2.5 -3 -2.5 -6 0 -3.6 0.2 -3.9 2.8 -3.9 2.3 -0.1 2 -0.5 -2.8 -3 -3 -1.6 -8.6 -3.9 -12.3 -5.1 -3.8 -1.2 -14.7 -6.1 -24.3 -11 -26.7 -13.5 -56.1 -22.6 -89.8 -27.6 -13.6 -2.1 -48.6 -2.3 -62.6 -0.4 -23.5 3.1 -47.8 9.6 -69.5 18.6 -9.8 4 -31.2 14.5 -35.1 17.1 -1.6 1.1 -4.2 2.6 -5.9 3.4 -1.6 0.8 -3.9 2.4 -5 3.6 -1.1 1.1 -4.1 3.6 -6.7 5.6 -4.8 3.6 -34.9 31.8 -44.2 41.3 -10.4 10.8 -17.5 19.6 -47.5 59.5 -6.4 8.5 -14.7 18.8 -18.6 22.8 -9.4 10 -25.1 21.6 -36 26.8 -12 5.6 -31.9 12.1 -44.5 14.4 -35.7 6.5 -93.1 10.1 -186.7 11.7 l-36.3 0.6 0 -2.2 c0 -2.2 -0.3 -2.2 -7.2 -1.8 -7.3 0.5 -103.8 3.6 -115.5 3.7 -6.1 0 -6.3 -0.1 -6.3 -2.6 l0 -2.6 -16.2 0.6 c-9 0.4 -21.7 1.2 -28.3 1.7 -23.1 1.9 -169.5 2.6 -615 2.8 -305.6 0.2 -449.4 0.6 -450.3 1.3 -0.7 0.7 -1.2 3.7 -1.2 8.4 0 6 0.3 7.5 1.8 8.2 2 1.1 1143.4 0.8 1360 -0.3 l139.3 -0.7 2.5 2.3 c3.1 2.9 3.5 11.3 0.7 12.7 -1.1 0.6 -306 1 -752.2 1.1 -412.7 0.1 -750.8 0.4 -751.3 0.7 -1 0.6 -1.1 17.1 -0.1 17.7 0.5 0.3 222.4 0.6 493.3 0.7 519.3 0.3 585.2 0.8 632.8 4.6 l8.2 0.7 0 -2.6 c0 -2.4 0.2 -2.5 8.3 -3.2 7.8 -0.7 83.2 1 109 2.4 11.7 0.6 11.7 0.6 11.7 -1.6 l0 -2.3 30.2 0 c93 0 160.8 5.6 194.3 16 1.7 0.5 5.5 1.7 8.5 2.6 11.7 3.6 24.4 10.9 35.6 20.5 8.1 6.8 22.9 21.4 27 26.6 2.1 2.6 7.2 8.7 11.4 13.4 8.6 9.9 17.6 20.8 24.2 29.4 12.8 16.7 45 42 71.3 56 24.2 12.9 27.5 14.3 49.4 21.5 21.3 7 40.6 11.5 64.1 14.9 8.4 1.2 51 0.6 62 -0.8z m-133.3 -0.8 c-0.4 -0.3 -2.8 -1.4 -5.4 -2.4 -16.8 -6.2 -21.4 -7.9 -26 -9.8 -6.6 -2.6 -7 -1.9 -0.5 0.9 2.6 1.2 6.3 2.9 8.2 3.7 4.1 1.9 22.1 8.2 23.4 8.3 0.5 0 0.6 -0.3 0.3 -0.7z m-90.2 -45.1 c-6.6 -5.5 -16.2 -12.1 -15.1 -10.4 0.7 1.2 14.6 11.2 15.5 11.2 0.3 0 0.1 -0.4 -0.4 -0.8z m471.5 -86.6 c9.6 -7.2 22.2 -15.7 28 -18.8 13.3 -7.2 34.4 -15.7 48 -19.2 12.1 -3.2 16.7 -4.9 10.5 -4.1 -13.9 2 -38 9.7 -53.2 17 -12.2 5.8 -33 20.1 -45.3 31 -8 7.2 -34 32.6 -34 33.2 0 0.3 6.4 -5.5 14.3 -12.8 7.8 -7.2 22.1 -19.1 31.7 -26.3z m-532.5 28.7 c-2.7 -2.5 -10.8 -10.3 -18 -17.3 -14.4 -14 -16.4 -15.6 -31.5 -25.7 -10.8 -7.2 -28.6 -15.7 -42 -20 -10.8 -3.4 -30 -8.3 -32.4 -8.2 -1.3 0.1 -0.8 0.5 1.4 1.1 1.9 0.5 6 1.7 9 2.5 24.1 6.8 45.7 15.9 61.5 26.1 9 5.8 32.2 24.4 45.5 36.7 5.7 5.2 10.7 9.5 11 9.5 0.3 0 -1.7 -2.1 -4.5 -4.7z m-128.5 -72.3 c-1.4 -0.4 -3.6 -0.8 -5 -0.8 -2.2 0 -2.2 0.1 0.5 0.8 1.7 0.4 3.9 0.8 5 0.8 1.6 0 1.5 -0.2 -0.5 -0.8z m16.5 -104.7 c23 -5.3 28.1 -7 44.7 -15.4 23.7 -11.9 39.7 -25.5 80.8 -68.4 29.3 -30.6 25.6 -27.5 -19.5 16.6 -26 25.4 -43.8 39.1 -63.5 48.9 -11.5 5.8 -34 14 -49.9 18.1 -6.4 1.7 -11.8 3.3 -12.1 3.5 -0.8 0.8 8.2 -0.7 19.5 -3.3z m724 -0.8 c-17 -4.3 -25.1 -7.3 -42 -15.5 -24.6 -11.9 -42.2 -25.8 -80.5 -63.8 -19.5 -19.4 -33.1 -32.2 -51.7 -48.6 -1.3 -1.1 -2.3 -1.7 -2.3 -1.4 0 0.3 6.1 6.1 13.6 12.8 7.4 6.7 19.7 18.6 27.2 26.3 32.6 33.7 43.2 44.3 51.2 51.1 25.6 21.7 43 30.6 75 38.1 6.3 1.5 12.6 3.1 14 3.5 1.4 0.5 3.9 0.8 5.5 0.8 1.7 0 -2.8 -1.4 -10 -3.3z m-210 -167.2 c-13.2 -8 -36.4 -18.3 -54.3 -24.2 -41.9 -13.9 -65 -18.1 -99 -18.1 -21.8 0 -42.3 2.6 -63.6 8 -26.7 6.8 -52.3 15.6 -65.6 22.5 -3.6 1.9 -9.5 4.8 -13.2 6.5 -3.8 1.7 -6.8 3.3 -6.8 3.5 0 0.8 5.3 -0.6 6.4 -1.6 0.6 -0.5 2 -0.9 3.1 -0.9 1.2 0 4.4 -1.1 7.1 -2.5 2.7 -1.4 5.2 -2.5 5.6 -2.5 0.3 0 4.1 -1.6 8.4 -3.6 25.1 -11.6 46.1 -17.7 77 -22.6 11.8 -1.8 18.1 -2.1 41.9 -2.1 25 0 29.8 0.3 45 2.6 18 2.7 40.6 8 52.7 12.3 7.8 2.8 28.2 11.5 38.5 16.5 21.5 10.3 26.8 12.3 16.8 6.2z"/>
  <path d="M1902 1435.9 c-22.2 -1.7 -47.7 -8.2 -69.7 -17.5 -10.3 -4.4 -14.7 -6.8 -32.3 -17.2 -15.1 -8.9 -30.9 -21.8 -40.5 -32.8 -3.3 -3.8 -7.9 -8.9 -10.2 -11.4 -5.7 -6.1 -22.3 -28.8 -22.3 -30.4 0 -0.4 -1.2 -2.5 -2.7 -4.9 -8.1 -12.8 -22.3 -46.8 -22.3 -53.4 0 -2.4 -4.2 -11.3 -7.2 -15.3 -4.8 -6.6 -14.1 -9.9 -27.3 -10 -4.4 0 -11.1 -0.5 -15 -1 -7.8 -1 -10.5 -3.1 -10.5 -8.2 0 -6.6 3 -8.2 17 -9.3 15.4 -1.1 25.3 -4 31 -9.1 5.1 -4.7 7.3 -10.9 10.5 -30.9 2 -12.1 6 -29 8.6 -36.5 1.8 -5 12.5 -26.9 17.9 -36.5 13.5 -24.2 43.8 -56.7 68 -72.7 18.6 -12.4 54.5 -28 73 -31.9 24.9 -5.1 26.6 -5.3 55 -5.2 23.4 0.1 29.1 0.5 38 2.2 19.3 3.8 25.9 5.6 38.5 10.4 41.1 15.8 75.7 41.9 101.8 77 10.2 13.7 13.6 19.3 22.5 37.2 9.7 19.3 14.5 35 19.2 63 2.6 15.6 5 21.5 10.3 26 5.4 4.6 11.1 6.4 25.2 7.6 16 1.4 16.9 1.9 17.3 9.1 0.2 4.6 0 5.8 -1.5 6.6 -1 0.5 -8.5 1.2 -16.8 1.4 -12.9 0.4 -15.6 0.8 -19.3 2.7 -10.3 5.3 -14.9 12 -20.4 30.1 -7.6 25.2 -19.5 48.4 -37.3 72.5 -6.8 9.3 -30.8 33.7 -41 41.7 -10.2 8 -38.5 25.2 -47.4 28.8 -4.2 1.7 -8.5 3.5 -9.6 4 -4.2 2 -20.4 6.9 -29 8.8 -24.5 5.5 -46.8 7.1 -71.5 5.1z m48.4 -16.3 c4.9 -0.9 9.2 -1.8 9.5 -2.2 0.6 -0.6 -0.1 -0.5 -13.9 1.8 -4.1 0.6 -16 1.2 -26.5 1.2 -11.5 -0.1 -17.4 0.2 -15 0.7 6.1 1.2 35.9 0.2 45.9 -1.5z m-58.6 -1.3 c-1 -0.2 -2.6 -0.2 -3.5 0 -1 0.3 -0.2 0.5 1.7 0.5 1.9 0 2.7 -0.2 1.8 -0.5z m-167.7 -146.9 c-0.5 -1.6 -1 -2.1 -1 -1.2 -0.1 1.8 1 5.1 1.5 4.5 0.2 -0.1 -0.1 -1.6 -0.5 -3.3z m401.3 -46.4 l0.4 -17.5 -0.8 16 c-0.4 8.8 -1 18.3 -1.3 21 -0.6 4.5 -0.6 4.7 0.4 1.5 0.5 -1.9 1.1 -11.4 1.3 -21z m-408.7 -4.2 c-0.2 -2.4 -0.4 -0.5 -0.4 4.2 0 4.7 0.2 6.6 0.4 4.3 0.2 -2.4 0.2 -6.2 0 -8.5z m407.4 -28.3 c-0.7 -5.2 -0.9 -5.4 -1 -2 -0.1 4.7 1.2 12.9 1.6 10 0.2 -1.1 -0.1 -4.7 -0.6 -8z m-236.3 -174.2 c-1 -0.2 -2.6 -0.2 -3.5 0 -1 0.3 -0.2 0.5 1.7 0.5 1.9 0 2.7 -0.2 1.8 -0.5z m36.7 -1.7 l25 0 -11 -1.3 c-8.7 -1 -14.6 -1 -28 -0.1 -9.3 0.6 -17.9 1.5 -19 1.9 -1.1 0.5 0.2 0.6 3 0.2 2.8 -0.4 16.3 -0.8 30 -0.7z"/>
  <path d="M1748 1389 c0 -0.5 -0.6 -1 -1.3 -1 -2 0 -36.7 -34.3 -36.7 -36.3 0 -0.9 -0.7 -1.7 -1.5 -1.7 -0.8 0 -1.5 -0.3 -1.5 -0.7 0 -0.5 -1.4 -2.4 -3.2 -4.3 -3.4 -3.9 -12.5 -17.6 -15.1 -22.9 -0.9 -1.9 -1.7 -5.1 -1.7 -7.1 0 -2.1 -0.7 -4.3 -1.5 -5 -0.8 -0.7 -1.5 -1.9 -1.5 -2.6 0 -0.8 -0.3 -1.4 -0.7 -1.4 -0.5 0 -1.7 -1.4 -2.8 -3 -1.1 -1.6 -2.6 -3 -3.3 -3 -0.7 0 -1.6 -0.8 -1.9 -1.7 -1.3 -3.7 -12.4 -13.1 -22.9 -19.5 -12.3 -7.5 -17.4 -9.7 -28.9 -12.3 -4.4 -0.9 -8.6 -1.9 -9.2 -2.1 -0.8 -0.2 -1.3 -1.9 -1.3 -3.9 l0 -3.5 5.8 0 c5.4 0 22 2.8 28.7 4.8 4.1 1.2 16.8 7.7 23.5 11.9 6.7 4.3 9.5 7.3 16.7 18.3 3.1 4.7 7.7 11.7 10.3 15.5 8.6 12.9 15 23.5 15 25 0 0.8 0.5 1.5 1 1.5 0.6 0 1 2.2 1 5 0 4.7 0.3 5.3 5.3 10.2 2.9 2.9 6.4 6.2 7.8 7.4 1.3 1.2 7.9 7.7 14.7 14.6 10.4 10.6 12.2 12.9 12.2 15.6 0 3 -0.2 3.2 -3.5 3.2 -1.9 0 -3.5 -0.4 -3.5 -1z"/>
  <path d="M2089 1385.5 c0 -2.8 1 -4.6 5.9 -9.7 22.4 -24.1 33.7 -39.6 54.4 -74.8 4.6 -8 10.5 -17.3 13 -20.6 10.2 -13.9 27.4 -21.4 49 -21.4 l6.8 0 -0.3 3.7 c-0.2 2.9 -0.8 3.8 -2.8 4.4 -1.4 0.3 -5.4 1.5 -9 2.4 -17.8 4.9 -28.6 14.5 -46.9 42 -19.4 28.9 -24.8 36.7 -27.6 40 -1.5 1.7 -4.7 5.4 -7.3 8.4 -11.5 13.4 -16.1 18.3 -21.9 23.5 -5 4.6 -6.8 5.6 -9.7 5.6 -3.4 0 -3.6 -0.2 -3.6 -3.5z"/>
  <path d="M2199.5 1209.1 c-9.4 -2.8 -16.4 -6.8 -23.3 -13.5 -7.9 -7.5 -12.8 -14.5 -18.3 -26.2 -2.3 -4.9 -5 -10.6 -6 -12.7 -1.1 -2.2 -1.9 -5.6 -1.9 -7.8 0 -3.8 0.1 -3.9 3.3 -3.9 2.9 0 3.6 0.6 5.6 4.3 6.6 12.6 16.2 27.4 22 33.9 8.8 9.9 23.9 17.7 37.4 19.3 l4.7 0.6 0 4 0 3.9 -8.7 -0.1 c-5.3 0 -11.2 -0.8 -14.8 -1.8z"/>
  <path d="M1619 1206.6 c0 -3.6 1.2 -4.6 5.6 -4.6 1.3 0 3.2 -0.4 4.2 -0.9 0.9 -0.5 4.5 -1.9 7.9 -3.1 14.9 -5.3 27.8 -17 38.5 -35.2 2.9 -4.8 5.6 -8.8 6 -8.8 0.4 0 0.8 -0.9 0.8 -2 0 -1.1 0.7 -2.3 1.5 -2.6 0.8 -0.4 1.5 -1.7 1.5 -3 0 -1.5 0.6 -2.4 1.5 -2.4 0.9 0 1.5 -0.9 1.5 -2.5 0 -2.2 0.4 -2.5 3.5 -2.5 3.4 0 3.5 0.1 3.5 4 0 2.2 -0.4 4 -1 4 -0.5 0 -1 1.4 -1 3 0 2 -0.5 3 -1.5 3 -0.8 0 -1.5 0.9 -1.5 2 0 1.1 -0.4 2 -1 2 -0.5 0 -1 1.1 -1 2.3 0 3.7 -7.6 18.4 -13.6 26.4 -11.9 16 -28.9 24.3 -49.4 24.3 l-6 0 0 -3.4z"/>
 </g>
 <g fill="#ffffff">
  <path d="M1889.5 1495.5 c-38.2 -3.8 -80.7 -14.9 -108.7 -28.5 -2.3 -1.1 -4.6 -2 -5.1 -2 -1.5 0 -34.5 -16.8 -44.2 -22.5 -5.1 -3 -9.6 -5.5 -9.9 -5.5 -0.4 0 -5.2 -3 -10.7 -6.7 -5.5 -3.8 -13.3 -8.8 -17.3 -11.3 -4 -2.5 -11.9 -7.4 -17.5 -11 -5.6 -3.6 -11 -6.9 -11.9 -7.5 -1 -0.5 -3.1 -1.9 -4.7 -3 -1.7 -1.2 -4.8 -3 -7 -4 -2.2 -1.1 -4.3 -2.4 -4.6 -2.8 -0.7 -0.9 -24.5 -13.3 -48.5 -25.2 -22.5 -11 -43.6 -20.1 -65.1 -27.9 -4 -1.4 -10.3 -3.7 -14.1 -5.1 -3.7 -1.4 -7.2 -2.5 -7.7 -2.5 -0.5 0 -3.9 -1.1 -7.5 -2.4 -13.8 -5 -39.9 -12.5 -54.3 -15.7 -8.8 -1.9 -12.8 -2.8 -20.9 -5.1 -2.4 -0.6 -6.3 -1.5 -8.8 -1.9 -2.5 -0.5 -6.5 -1.2 -9 -1.7 -15.8 -3.2 -32.6 -6.3 -39 -7.3 -4.1 -0.6 -10 -1.7 -13.1 -2.5 -3 -0.8 -7.6 -1.4 -10.2 -1.4 -2.5 0 -4.9 -0.5 -5.3 -1.1 -0.5 -0.9 0.8 -1 4.7 -0.6 13.1 1.4 23.1 2.9 31.9 4.7 5.2 1 14 2.6 19.5 3.5 5.5 0.9 14.3 2.6 19.5 3.6 5.2 1.1 14.9 3.1 21.5 4.4 23.9 4.8 73.4 19.3 97 28.3 9.7 3.7 25.1 10 32.5 13.2 8.5 3.7 45.5 21.8 51.5 25.2 8.7 5 17.2 10.3 21.6 13.5 2.6 1.8 5 3.3 5.5 3.3 0.4 0 1.5 0.6 2.3 1.3 0.9 0.8 3.2 2 5.1 2.7 4 1.6 19.7 10.2 48.5 26.5 2.8 1.6 6.4 3.6 8.1 4.6 1.7 0.9 6.9 4.1 11.5 7 11.4 7.2 43.8 23.6 57.9 29.4 6.3 2.6 13.3 5.5 15.5 6.5 16 7.2 54.2 16.7 85 21.2 12.3 1.8 61.8 1.8 74.5 -0.1 27.9 -3.9 43.7 -7.1 59 -12 3.6 -1.2 8.8 -2.8 11.5 -3.7 2.8 -0.9 5.9 -1.9 7 -2.4 1.1 -0.4 7.9 -3.1 15 -6 23.6 -9.4 47.4 -21.8 85.1 -44 9.9 -5.9 22.5 -13.1 28 -16 5.4 -3 14.5 -8.2 20.2 -11.7 5.7 -3.5 15.5 -9.1 21.9 -12.4 6.3 -3.3 15.4 -8.2 20.2 -10.8 12 -6.5 49 -23.7 58.6 -27.3 4.4 -1.7 9.4 -3.6 11 -4.3 1.7 -0.7 6.4 -2.5 10.5 -4 4.1 -1.5 8.3 -3.1 9.2 -3.6 1 -0.5 2.4 -0.9 3.3 -0.9 0.8 0 4.3 -1.1 7.7 -2.4 3.5 -1.3 10.8 -3.6 16.3 -5.1 5.5 -1.5 13.2 -3.8 17 -5.1 17.8 -5.8 40 -10.9 80 -18.4 22.8 -4.2 29.6 -5 26.5 -3 -0.8 0.5 -2.8 1 -4.4 1 -1.6 0 -5.5 0.6 -8.5 1.4 -3.1 0.8 -9.6 2.2 -14.6 3.1 -12.4 2.3 -44 10 -69 17 -2.7 0.7 -7.9 2.1 -11.5 3 -3.6 0.9 -7.4 2 -8.5 2.4 -2.7 1.1 -8 2.9 -14 4.8 -17.8 5.7 -24.5 8 -38.3 13.4 -25.8 10 -83.1 37 -100.7 47.5 -3.8 2.3 -14.9 8.8 -24.5 14.4 -9.6 5.6 -19.4 11.5 -21.8 13.1 -2.3 1.6 -4.5 2.9 -4.9 2.9 -0.3 0 -2 1 -3.7 2.3 -1.7 1.3 -3.8 2.6 -4.6 3 -0.8 0.4 -5.8 3.4 -11 6.7 -5.2 3.3 -11.7 7.2 -14.3 8.6 -2.6 1.3 -7.1 4 -10 5.8 -5.5 3.5 -22.8 12.3 -28.7 14.6 -1.9 0.8 -6.9 2.9 -11 4.8 -4.1 1.9 -9.7 4.3 -12.5 5.3 -2.7 1.1 -5.9 2.3 -7 2.8 -1.1 0.5 -3.6 1.6 -5.5 2.4 -15.2 6.6 -48.9 14.5 -75 17.6 -4.7 0.6 -12 1.5 -16.3 2.1 -10.1 1.3 -41 1.1 -56.2 -0.5z"/>
  <path d="M1888.5 1478.5 c-9.8 -1.2 -24.5 -3.6 -30 -5 -1.1 -0.2 -5.1 -1.2 -9 -2 -13 -3 -43.5 -12.8 -53.5 -17.2 -6.3 -2.8 -30.9 -15.1 -39 -19.6 -7.9 -4.3 -36.1 -23.1 -42.4 -28.3 -3 -2.4 -7.5 -7.6 -10.1 -11.6 -6 -9.2 -12.2 -15.7 -25.5 -26.6 -5.8 -4.7 -13.7 -11.6 -17.5 -15.2 -9.8 -9.2 -32.5 -27.5 -41.9 -33.8 -16.1 -10.8 -38 -20.3 -63.6 -27.5 -5.3 -1.5 -7.1 -1.9 -21 -5.1 -13.9 -3.3 -27.8 -5.9 -35 -6.6 -4.1 -0.5 -12.9 -1.5 -19.5 -2.4 -20.8 -2.7 -37.4 -4.4 -57.5 -6.1 -10.7 -0.8 -27.4 -2.2 -37 -3 -35 -2.9 -117.3 -5.3 -128 -3.7 l-5.5 0.8 6.5 0.7 c3.6 0.3 11.9 0.9 18.5 1.2 40.2 1.9 73.9 5 107.5 9.7 8 1.2 17.2 2.4 20.5 2.9 3.3 0.4 10.5 1.5 16 2.4 5.5 0.8 12.7 2 16 2.5 7.8 1.2 16.8 2.7 23 4 2.8 0.6 8.4 1.7 12.5 2.5 42.2 8.3 74.4 17.9 108 32.2 9.8 4.2 30.3 15.1 44.5 23.7 9.7 5.8 48.9 33.3 57.2 40.1 2.7 2.2 6 4.8 7.3 5.7 l2.5 1.7 -2.5 0 c-2.8 0.1 -23.1 -12.6 -53.5 -33.5 -14.8 -10.2 -52.6 -30.6 -70 -37.9 -2.2 -0.9 -4.9 -2 -6 -2.5 -4 -1.8 -21.2 -7.9 -30.5 -10.9 -34.3 -11 -103.3 -23.9 -156 -29.1 -6.3 -0.7 -13.5 -1.6 -16 -2.1 -4.9 -1 -18.8 -2.4 -37 -3.9 -6.3 -0.5 -16.4 -1.4 -22.5 -1.9 -6 -0.6 -20 -1.5 -31 -2.1 -11 -0.5 -27.6 -1.5 -37 -2.1 -46.1 -2.8 -91.5 -3 -594 -3.5 -287.1 -0.3 -522.6 -0.7 -523.2 -0.9 -1.5 -0.5 -1.9 -23 -0.5 -23.9 0.5 -0.3 338.5 -0.6 751.3 -0.7 435.1 -0.1 751.1 -0.6 752.2 -1.1 2.4 -1.2 2.1 -4.1 -0.8 -6.8 l-2.4 -2.3 -122.3 0.8 c-194.3 1.1 -1375 1.5 -1377 0.4 -1.5 -0.8 -1.8 -2.5 -1.8 -11.3 0 -7.1 0.4 -10.7 1.2 -11.4 0.9 -0.6 172.1 -1.2 510.8 -1.6 280.6 -0.3 519.4 -1 531.5 -1.5 32.3 -1.4 60.5 -2.9 73.5 -4.1 6.3 -0.5 20.7 -1.7 32 -2.5 23.6 -1.7 40.3 -3.2 51 -4.5 4.1 -0.5 12.2 -1.4 18 -2 14 -1.4 42.9 -4.8 51 -6 3.6 -0.5 11.5 -1.6 17.5 -2.5 6.1 -0.9 13.3 -2 16 -2.5 2.8 -0.5 11.8 -2.1 20 -3.5 14 -2.4 23.3 -4.3 33 -6.5 2.2 -0.6 8.1 -1.9 13 -3 22.6 -5.2 38.7 -9.4 47.5 -12.2 14.8 -4.8 40.9 -15.3 50.7 -20.4 31.7 -16.8 40.4 -22.6 79.3 -52.5 60.1 -46.1 54.9 -42.3 84.5 -60.8 18.3 -11.4 23.6 -14.3 44.5 -24.6 22.4 -11.1 61.8 -23.6 88.1 -27.9 29.3 -4.8 67.4 -4.9 94.3 -0.1 24.1 4.2 65.5 17.4 86.3 27.5 21.8 10.5 55 30.7 72.9 44.1 22.6 17.1 36.9 28.1 44.9 34.3 20.1 16 48.7 36.7 59.6 43.3 12 7.3 30.6 17.3 37.6 20.2 3.8 1.6 8.5 3.5 10.4 4.4 1.9 0.8 5 2 6.9 2.7 1.9 0.7 4.9 1.9 6.5 2.6 21.5 9.5 103.3 28.6 143.3 33.4 4 0.5 9.8 1.3 13 1.9 3.1 0.5 9.3 1.4 13.7 2 4.4 0.5 13.2 1.7 19.5 2.5 6.3 0.8 18.9 2.2 28 3.1 9.1 0.8 21.1 1.9 26.8 2.5 5.6 0.5 14.8 1.5 20.5 2 19.3 1.9 35.2 3 56.7 4 11.8 0.6 25.1 1.7 29.5 2.6 4.5 0.9 17.8 1.9 30.5 2.4 12.4 0.5 253.8 1.2 536.5 1.6 362.8 0.5 514.2 1 514.7 1.8 0.7 1.1 0.1 21.4 -0.7 22.7 -0.4 0.6 -422.6 0.6 -1168.8 -0.2 l-331.9 -0.4 -1.9 2.4 c-2.1 2.6 -2.2 3 -1 5 0.8 1.3 103.9 1.5 752.3 1.9 563.3 0.3 751.5 0.7 752 1.6 1 1.5 1 22.4 0 23 -0.4 0.2 -235 0.7 -521.3 1 -286.2 0.3 -524.7 0.8 -529.9 1.1 -5.2 0.2 -19.5 0.7 -31.7 1 -12.2 0.3 -25.9 1 -30.5 1.5 -4.6 0.6 -12.1 1 -16.7 1 -24.6 0 -126 9.3 -152.6 14 -2.7 0.5 -8.1 1.3 -12 1.9 -24.3 3.5 -30.4 4.4 -42.5 6.7 -27 5.1 -42.8 8.5 -55.7 11.9 -14 3.7 -47.7 14.6 -53 17 -1.7 0.8 -3.4 1.5 -3.8 1.5 -0.4 0 -4.1 1.6 -8.3 3.6 -4.2 2 -10.2 4.7 -13.2 6.1 -10.8 5 -21.1 10.4 -33.6 17.3 -1.7 1 -7.2 4.4 -12.3 7.6 -5.1 3.3 -10 6.4 -11 6.9 -2.5 1.5 -30.8 20.2 -37.1 24.5 -5.8 4 -8.8 5.7 -21 12.3 -4.1 2.2 -9.2 5.1 -11.2 6.4 -2.1 1.3 -4.2 2.3 -4.6 2.3 -1.5 0 -6.3 2.8 -17.2 10 -9.4 6.2 -14.1 9.1 -27.5 16.7 -7.1 4.1 -33.9 17.6 -36.5 18.3 -1.4 0.5 -7.7 2.7 -14 5 -6.3 2.3 -12.8 4.6 -14.5 5 -29.4 8.1 -47.4 11.9 -66.5 13.9 -13.7 1.5 -46.6 1.2 -60.5 -0.4z m53.5 -8 c15.4 -1.3 21.1 -2.1 38.5 -5.5 15.9 -3.1 51.9 -14.5 59.7 -19 1 -0.6 2.2 -1 2.8 -1 0.6 0 6.1 -2.4 12.3 -5.3 15.2 -7.2 39.4 -21.6 49.7 -29.6 9.8 -7.5 30.1 -26.3 58 -53.7 25.7 -25.3 32 -30.8 47.8 -42.1 24.2 -17.3 50.1 -27.3 87.7 -33.9 23.8 -4.2 46.1 -7.2 63.5 -8.4 8 -0.6 19.9 -1.5 26.5 -2 6.7 -0.5 19.5 -1.4 28.5 -2 26.9 -1.7 43.4 -3.2 45 -4.1 3.6 -2 -118.1 0.5 -148 3.1 -26.6 2.3 -49.8 5.7 -62 9 -14.7 4 -22.6 6.8 -29.5 10.2 -18.7 9.4 -30.7 19.2 -48.8 40.1 -6.7 7.7 -14.7 16.9 -17.7 20.3 -3 3.5 -9 10.4 -13.4 15.4 -10 11.6 -29.9 31.7 -35.1 35.6 -2.2 1.6 -7.1 5.4 -11 8.5 -17.2 13.8 -57.8 35.4 -81.6 43.3 -34.8 11.8 -50.9 14.6 -87.4 15.3 -36.3 0.8 -62 -3.3 -99.6 -15.7 -21.9 -7.2 -25.2 -8.6 -49.4 -21.5 -26.3 -14 -58.5 -39.3 -71.3 -56 -6.6 -8.6 -15.6 -19.5 -24.2 -29.4 -4.2 -4.7 -9.3 -10.8 -11.4 -13.4 -4.1 -5.2 -18.9 -19.8 -27 -26.6 -11.2 -9.6 -23.9 -16.9 -35.6 -20.5 -3 -0.9 -6.8 -2.1 -8.5 -2.6 -19.9 -6.2 -50.7 -10.7 -88.5 -13 -28.4 -1.7 -73.6 -3 -103 -3 -40.9 0.1 -36 1.1 29 6.1 40.9 3.1 58.8 4.9 84 8.4 6.3 0.9 14.4 2 18 2.5 30.4 4 64.5 16 86 30.3 15.1 10.1 17.1 11.7 31.5 25.7 7.2 6.9 18.8 18.2 25.9 25 7.1 6.9 14.9 15.2 17.3 18.5 6.7 9 15.5 17.8 20.9 21 2.7 1.6 8.7 5.8 13.4 9.5 18.9 14.7 43.8 28.2 69 37.4 6.8 2.5 17.2 6.5 22.5 8.6 3.4 1.4 17.5 5.2 27.5 7.4 21.8 4.9 27.2 5.7 45.5 7.1 23 1.7 22.6 1.7 42.5 0z m-5 -37.5 c12.8 -1.1 21.7 -2.5 33.5 -5.2 8.6 -1.9 24.8 -6.8 29 -8.8 1.1 -0.5 5.4 -2.3 9.6 -4 8.9 -3.6 37.2 -20.8 47.4 -28.8 10.2 -8 34.2 -32.4 41 -41.7 17.8 -24.1 29.7 -47.3 37.3 -72.5 5.5 -18.1 10.1 -24.8 20.4 -30.1 3.7 -1.9 6.4 -2.3 19.3 -2.7 8.3 -0.2 15.8 -0.9 16.8 -1.4 2.7 -1.4 1.8 -6 -1.3 -7.5 -1.4 -0.6 -7.9 -1.6 -14.5 -2.2 -14.1 -1.2 -19.8 -3 -25.2 -7.6 -5.3 -4.5 -7.7 -10.4 -10.3 -26 -4.7 -28 -9.5 -43.7 -19.2 -63 -8.9 -17.9 -12.3 -23.5 -22.5 -37.2 -31.2 -41.9 -78.2 -73.5 -125.8 -84.4 -19.1 -4.4 -25.1 -5 -49.5 -5.2 -25 -0.1 -27.8 0.2 -52 5.2 -18.5 3.9 -54.4 19.5 -73 31.9 -24.2 16 -54.5 48.5 -68 72.7 -5.4 9.6 -16.1 31.5 -17.9 36.5 -2.6 7.5 -6.6 24.4 -8.6 36.5 -3.2 20 -5.4 26.2 -10.5 30.9 -5.7 5.1 -15.6 8 -31 9.1 -14.3 1.1 -19.1 3.7 -15.2 8.5 2 2.5 10.5 3.9 23.7 4 13.2 0.1 22.5 3.4 27.3 10 3 4 7.2 12.9 7.2 15.3 0 6.6 14.2 40.6 22.3 53.4 1.5 2.4 2.7 4.5 2.7 4.9 0 1.6 16.6 24.3 22.3 30.4 2.3 2.5 6.9 7.6 10.2 11.4 9.6 11 25.4 23.9 40.5 32.8 17.6 10.4 22 12.8 32.3 17.2 33.3 14.1 69.7 20.4 101.7 17.6z m195.7 -30 c9.5 -5.1 30.4 -18.9 46.4 -30.6 26.7 -19.4 58.4 -38.2 81.2 -48.1 12.3 -5.3 37.5 -14.7 48.2 -18 11 -3.3 40.9 -10.6 59 -14.3 19 -4 28.1 -5.5 53.5 -8.9 4.1 -0.6 10.2 -1.5 13.5 -2.1 11.6 -2 34.1 -5.1 43.5 -6 5.2 -0.5 12.7 -1.4 16.5 -1.9 5.9 -0.9 49.4 -3.9 98 -6.7 9.5 -0.5 11.4 -0.9 9 -1.6 -6.1 -1.9 -110.2 0.8 -144 3.7 -9.3 0.8 -26.4 2.1 -38 3 -23 1.8 -64.8 6 -73.5 7.5 -3 0.5 -8.9 1.4 -13 2.1 -8.9 1.4 -22.3 4.2 -30 6.2 -16.4 4.4 -25.8 7 -29.9 8.4 -10.4 3.4 -27.2 10.8 -37.1 16.1 -14 7.6 -42.2 28.8 -60 45.3 -8 7.4 -20.6 18.7 -28 25 -12.4 10.7 -16 14.2 -22.9 22.2 -3.5 3.9 -1.1 3.5 7.6 -1.3z m-33.4 -22.6 c5.8 -5.2 10.4 -10.1 21.9 -23.5 2.6 -3 5.8 -6.7 7.3 -8.4 2.8 -3.2 7.6 -10.3 27.6 -40 20.5 -30.5 31.2 -39.1 54.6 -44 4.7 -1 5.1 -2.5 0.6 -2.5 -12 0 -26.2 4.4 -35.1 10.7 -7.6 5.4 -12.5 11.9 -23.9 31.3 -20.5 34.8 -32.7 51.7 -53.7 74 -9.1 9.7 -8.7 11 0.7 2.4z m-360.8 -7.6 c-6.6 -6.7 -12.9 -12.9 -14 -13.7 -1.1 -0.8 -4.1 -3.7 -6.7 -6.4 -2.7 -2.7 -4.8 -4.3 -4.8 -3.6 0 1.6 34.8 35.9 36.4 35.9 0.6 0 -4.3 -5.5 -10.9 -12.2z m-26.5 -26.3 c0 -0.3 -0.5 -1.1 -1 -1.8 -2 -2.3 -16.9 -23.8 -17.3 -25 -0.2 -0.7 -0.8 -0.9 -1.2 -0.5 -0.9 0.8 9 16.7 13.9 22.3 2 2.2 3.6 4.3 3.6 4.8 0 0.8 2 1 2 0.2z m-2 -11.5 c0 -1.1 -7.4 -13.2 -15 -24.5 -2.6 -3.8 -7.2 -10.8 -10.3 -15.5 -7.2 -11 -10 -14 -16.7 -18.3 -7.8 -4.9 -19.6 -10.7 -25 -12.2 -7.1 -2.1 -22.5 -4.7 -25.1 -4.3 -3 0.6 -1.9 1 8.6 3.3 4.4 1 10.3 2.7 13 3.8 7.9 3 26.4 14.7 32.3 20.5 3 2.8 5.8 5.2 6.3 5.2 0.6 0 0.9 0.8 0.7 1.7 -0.2 1 0.2 1.8 0.9 1.8 0.6 0 2.2 1.4 3.4 3 1.3 1.7 2.6 3.2 2.9 3.5 0.3 0.3 1 1.3 1.5 2.2 0.6 0.9 5.4 7.8 10.8 15.3 5.3 7.4 9.7 14 9.7 14.5 0 0.6 0.5 1 1 1 0.6 0 1 -0.5 1 -1z m510 -127.9 c0 -0.6 -2.1 -1.2 -4.7 -1.6 -13.5 -1.6 -28.6 -9.4 -37.4 -19.3 -5.8 -6.5 -15.4 -21.2 -22 -33.9 -2.9 -5.5 -3.9 -4.7 -1.2 0.9 1.1 2.4 3.9 8.3 6.2 13.2 10.3 21.8 23.4 34.3 41.6 39.7 6.4 1.9 17.5 2.5 17.5 1z m266.4 0.3 c4.2 -0.4 7.4 -0.9 7.2 -1.2 -0.3 -0.2 -6.9 -0.8 -14.8 -1.3 -39.4 -2.2 -80.4 -5.3 -85.3 -6.4 -1.1 -0.3 -8.1 -1 -15.5 -1.5 -27.9 -2.2 -48.7 -4.8 -65 -8 -2.5 -0.5 -8.5 -1.6 -13.5 -2.5 -41.4 -7.5 -64.8 -15.9 -85.5 -30.8 -17.5 -12.6 -24.3 -19 -68 -64.2 -7.5 -7.7 -18.3 -18.2 -24 -23.4 -5.8 -5.2 -14.1 -12.7 -18.5 -16.7 -12.5 -11.2 -19.5 -16.8 -20.3 -16 -0.4 0.4 0.7 1.9 2.3 3.3 1.7 1.4 10.4 9.6 19.4 18.2 17.7 16.9 27.9 28.5 49.6 56.6 31.3 40.5 39.9 49.6 56.5 60.4 19.9 13 47.9 21.7 80 25.1 6.3 0.6 15.3 1.6 20 2.1 10 1.1 63.7 3.3 119 4.9 21.7 0.6 40.2 1.3 41 1.5 2.8 0.5 7.7 0.5 15.4 -0.1z m-1200.4 -2 c79.2 -2.3 85.2 -2.6 147 -9.5 19.2 -2.1 45.5 -5.6 56.5 -7.4 4.4 -0.8 11.4 -1.9 15.5 -2.5 4.1 -0.6 9.3 -1.5 11.5 -2 2.2 -0.5 7.4 -1.6 11.5 -2.5 17.9 -3.8 32.3 -7.9 48.2 -13.6 32.8 -11.7 53 -25.2 86.3 -57.9 56.5 -55.5 80.5 -76.2 98.2 -84.6 4.3 -2.1 8.9 -4.5 10.3 -5.4 3.5 -2.4 11.9 -7 12.7 -7 0.4 0 -1.5 2 -4 4.5 -2.6 2.5 -4.5 4.5 -4.2 4.5 0.6 0 7.7 -4 9.2 -5.2 1.8 -1.5 25 -12.7 33.8 -16.3 21.6 -9 45.9 -15.5 69.5 -18.6 14.3 -2 54.8 -1.7 68.6 0.4 33.8 5.1 63.1 14.1 89.7 27.6 9.6 4.9 20.1 9.6 23.3 10.6 6.5 2 15.6 6.3 21.8 10.3 13.6 8.8 42.1 34.1 73.6 65.4 26.9 26.7 38.7 37.2 55 48.8 12.4 8.9 33.2 19.6 48.4 24.9 12.6 4.4 47.1 12.6 63.6 15.1 3 0.5 9.3 1.6 14 2.5 9.2 1.7 13 2.3 37.5 5.4 28.5 3.6 42.5 5 96 9.3 41.4 3.3 176.1 5.4 162.5 2.6 -1.9 -0.4 -16.8 -1.2 -33 -1.8 -41 -1.4 -59.8 -2.6 -89 -5.5 -16.9 -1.8 -24.4 -2.7 -39.5 -5 -6 -0.9 -13.7 -2 -17 -2.5 -31.3 -4 -88.5 -13.8 -105.8 -18 -4.5 -1.1 -11.3 -2.7 -15.2 -3.5 -9.4 -2.2 -12 -2.9 -26 -7 -6.6 -2 -15.8 -4.7 -20.5 -6.1 -19.2 -5.8 -51.7 -21.2 -69 -32.7 -14.5 -9.7 -38.4 -27.1 -45 -32.7 -3 -2.5 -9.8 -7.9 -15 -11.8 -5.2 -4 -15.1 -11.5 -22 -16.8 -6.9 -5.2 -17 -12.5 -22.5 -16.1 -5.5 -3.6 -11.8 -7.8 -14 -9.3 -8.7 -5.8 -26.4 -15.7 -33.6 -18.7 -4.1 -1.8 -12.2 -5.4 -18 -8.1 -14.7 -7 -32.1 -14.5 -40.7 -17.6 -12.2 -4.3 -34.7 -9.6 -52.7 -12.3 -14.8 -2.3 -20.3 -2.6 -42 -2.6 -20.7 0 -27.4 0.4 -38.9 2.2 -30.8 4.7 -51.8 10.9 -77 22.5 -4.3 2 -8 3.6 -8.2 3.6 -1.2 0 -9.3 4.1 -9.9 5 -0.3 0.5 -1.3 0.6 -2.1 0.3 -0.8 -0.3 -2.5 -0.1 -3.7 0.4 -1.2 0.6 -6 2.5 -10.7 4.3 -14.8 5.6 -36.6 18.8 -64.1 38.6 -16 11.5 -20.4 14.9 -39.9 31.1 -15 12.4 -51 37.8 -63.5 44.8 -10.9 6.1 -23.4 12.3 -31 15.5 -4.4 1.8 -9.8 4 -12 5 -9.4 4.1 -15.8 6.1 -39 12.5 -5.5 1.5 -13 3.6 -16.6 4.6 -11 3.1 -47.3 11.1 -58.9 12.9 -3 0.4 -10.9 1.8 -17.5 2.9 -65.7 11.1 -107.9 16.2 -163 19.6 -16.1 1 -32.9 2.7 -35 3.6 -2.7 1 -3.1 1 55.5 -0.7z m167 -0.3 c61.9 -2.1 108.3 -6.4 131 -12.1 10.1 -2.5 27 -8.4 35.5 -12.4 10.9 -5.2 26.6 -16.8 36 -26.8 3.9 -4 12.2 -14.3 18.6 -22.8 30 -39.9 37.1 -48.7 47.5 -59.5 9.1 -9.4 39.4 -37.7 44.2 -41.3 7.2 -5.5 8.9 -7.2 7.1 -7.2 -1.8 0 -16.3 11.5 -29 23.1 -5.2 4.7 -13.4 11.9 -18.4 16.1 -4.9 4.2 -17.8 16.7 -28.5 27.9 -50.8 53 -64 64.4 -89.5 77.1 -14.9 7.4 -19.9 9.3 -34.5 12.8 -17.9 4.4 -26.4 6 -45.7 9 -16.2 2.5 -19.6 3 -31.8 4.5 -7.1 0.8 -16.4 2 -20.5 2.5 -9.9 1.2 -53.7 5.3 -86.5 8 -31.6 2.6 -31.4 2.9 2 2.5 18.2 -0.3 46.3 -0.9 62.5 -1.4z m180.2 0.9 c17.7 -3.5 28.1 -9.8 38.2 -23.3 4.8 -6.3 13.6 -22.5 13.6 -24.9 0 -2.4 -2.1 0.1 -6.8 8 -10.7 18.2 -23.6 29.9 -38.5 35.2 -3.4 1.2 -7 2.6 -7.9 3.1 -1 0.5 -3 0.9 -4.5 0.9 -1.6 0 -3.5 0.5 -4.3 1 -2.1 1.3 3.3 1.3 10.2 0z m56.8 -57.5 c0 -0.8 -0.4 -1.5 -1 -1.5 -0.5 0 -1 0.7 -1 1.5 0 0.8 0.5 1.5 1 1.5 0.6 0 1 -0.7 1 -1.5z"/>
  <path d="M1894.5 1423.1 c-22.7 -3.8 -28 -5.2 -43 -10.8 -11.6 -4.3 -34.4 -15.4 -43 -20.9 -19 -12.1 -39.4 -30.9 -53.8 -49.7 -18 -23.4 -31.7 -52.6 -36.6 -77.7 -5.4 -27.7 -6 -36.8 -3.6 -61.5 2.8 -29.5 4.6 -37.9 12.5 -59 15.2 -40.7 46.4 -77 88.5 -103.2 16.2 -10.1 32.4 -16.5 57 -22.6 16.4 -4.1 19.2 -4.5 36.5 -5.8 38 -2.7 76.8 6 112.5 25.3 31.1 16.9 61.8 47.1 80.3 79.1 6.6 11.2 13.2 25.7 16.4 35.7 2.6 8 3.6 11.4 5.3 19 0.9 4.1 2.1 9.1 2.5 11 3.4 13.6 3.7 55.4 0.6 70.5 -3.2 15.3 -5.5 24.2 -7.6 30 -15.3 41.3 -40.5 75.4 -74.5 100.9 -12.3 9.3 -27.3 17.5 -49.5 27.3 -3 1.3 -6.3 2.8 -7.2 3.3 -1 0.6 -2.7 1 -3.7 1 -1.1 0 -2.2 0.4 -2.5 0.8 -0.3 0.5 -4 1.7 -8.3 2.6 -4.3 1 -8.7 1.9 -9.8 2.2 -18.1 4.2 -51.3 5.4 -69 2.5z m52.1 -7.7 c11.8 -1.6 19.7 -3.1 23.9 -4.3 43.5 -13.2 65.1 -25.5 92 -52.6 21.6 -21.7 31.1 -35.7 44.5 -66 5.5 -12.4 11.5 -34.3 13.3 -49 2 -16.3 1.3 -47.6 -1.3 -59 -0.5 -2.2 -1.7 -7.1 -2.6 -11 -1.6 -7.1 -7.5 -25.6 -9.9 -31 -8.5 -19.4 -18.7 -36.7 -29.3 -50 -20.8 -26 -56 -50.5 -89.7 -62.3 -24.4 -8.5 -56.1 -12.5 -82 -10.2 -36.5 3.2 -62.7 11.8 -91.5 30 -36.4 23 -61.8 53.1 -79.3 94.1 -7.9 18.7 -14.6 53.7 -14.7 77 0 19.5 7 52.9 15.2 72.8 11.8 28.4 32.1 55.5 57.1 76.3 15.8 13.2 18.2 14.8 35.7 24.5 13.5 7.5 44.4 17.4 64.2 20.4 17.9 2.8 36 2.9 54.4 0.3z"/>
  <path d="M2469.5 1294 c0.3 -0.5 2.3 -1 4.3 -1 2 0 6.4 -0.7 9.7 -1.5 3.3 -0.8 7.5 -1.4 9.4 -1.5 1.9 0 6 -0.4 9 -1 13.1 -2.3 26.3 -4 30.7 -4 2.6 0 7.3 -0.4 10.3 -1 7.4 -1.3 25 -3.1 38.1 -4 16.1 -1.1 39.3 -2.9 51 -4 5.8 -0.6 16.6 -1 24 -1 7.4 0 19.8 -0.4 27.5 -0.9 21.5 -1.5 68.8 -2.2 64 -1.1 -2.2 0.6 -16.8 1.4 -32.5 2 -46.2 1.6 -67 2.8 -120.5 7.1 -14.8 1.2 -31.7 2.5 -37.5 2.9 -5.8 0.4 -16.8 1.5 -24.5 2.5 -7.7 0.9 -17.6 2 -22 2.5 -8.1 0.8 -17.9 2.3 -26.8 4 -6.4 1.3 -15 1.3 -14.2 0z"/>
  <path d="M1328.5 1289 c-1.6 -0.5 -9.1 -1.4 -16.5 -2 -7.4 -0.7 -17.8 -1.6 -23 -2 -5.2 -0.5 -15.8 -1.6 -23.5 -2.5 -7.7 -0.9 -23.9 -2 -36 -2.3 -12.1 -0.4 -22.6 -1.1 -23.2 -1.5 -1.4 -0.9 -30 -2.5 -65.8 -3.7 -28.4 -0.9 -29.1 -0.9 -25 -1.9 3 -0.8 35.1 0.1 71.5 1.9 10.2 0.5 28.9 1.3 41.5 1.9 12.7 0.6 24.6 1.5 26.5 2.1 1.9 0.5 5.7 1 8.5 1 2.7 0 13.6 0.9 24 2 10.5 1.2 21.7 2.3 25 2.6 9.9 0.8 26.5 3.7 26.5 4.6 0 1 -6.5 0.9 -10.5 -0.2z"/>
  <path d="M1069.5 1272 c-10.9 -0.6 -10.8 -0.6 5.9 -0.8 9.3 -0.1 16.7 0 16.4 0.3 -0.9 0.9 -11.3 1.2 -22.3 0.5z"/>
  <path d="M1026 1201 c6.3 -0.4 18.5 -0.8 27 -0.9 8.5 0 23.4 -0.5 33 -1.1 9.6 -0.6 27 -1.5 38.5 -2.1 41.1 -2.1 53.1 -2.8 57.5 -3.3 2.5 -0.4 12.2 -1.1 21.5 -1.7 27.9 -1.7 58.5 -4.4 70.3 -6.1 7.2 -1 10.5 -0.8 9.1 0.6 -0.6 0.6 -17.7 2.7 -29.9 3.6 -14.8 1.2 -32.1 2.9 -34.5 3.6 -1.1 0.2 -8.7 0.9 -17 1.4 -44.2 2.9 -69.1 4.3 -87.5 5.1 -26 1.1 -103.6 1.9 -88 0.9z"/>
  <path d="M2771.5 1201.5 c-0.5 -0.3 -13.6 -0.9 -29 -1.5 -53.9 -2 -87.3 -4 -100 -6.1 -5.5 -0.9 -11.1 -1.4 -43.8 -3.8 -5.9 -0.4 -11.1 -1.1 -11.5 -1.5 -0.7 -0.8 17.7 -0.1 34.3 1.3 46.7 3.9 102.1 7.1 174.3 10 10.6 0.4 19.5 1.1 19.9 1.4 0.7 0.7 -42.5 0.8 -44.2 0.2z"/>
  <path d="M2566.5 1186 c-1.3 -0.6 0.6 -0.9 6 -0.9 4.4 0 8.7 0.4 9.5 0.9 1.9 1.2 -12.6 1.2 -15.5 0z"/>
  <path d="M1287.2 1184.4 c0.3 -0.3 4.6 -0.9 9.4 -1.4 4.9 -0.5 13 -1.6 17.9 -2.5 5 -0.8 11.9 -1.9 15.5 -2.4 3.6 -0.5 9.4 -1.4 13 -2 3.6 -0.6 9.4 -1.6 13 -2.2 3.6 -0.6 18 -3.3 32 -6.1 23.9 -4.6 33.8 -6.8 47 -10.4 3 -0.8 7.1 -1.9 9 -2.3 4.3 -1 14.4 -3.9 26.5 -7.5 4.8 -1.4 26.7 -9 38.5 -13.4 3 -1.1 10.5 -3.8 16.5 -6 6.1 -2.2 14.2 -5.5 18 -7.2 15.2 -7 46.5 -22.5 56 -27.7 17 -9.4 57.6 -35.1 77.3 -49 55.2 -38.9 75.7 -51.7 99.7 -62 28.5 -12.4 42.9 -17.4 65 -22.7 6.1 -1.5 12.6 -3.1 14.5 -3.6 13.8 -3.4 30.6 -5.1 59 -5.7 33 -0.7 60 2.1 85.5 8.8 19.6 5.2 22.5 6 27.5 7.7 17.1 5.6 56.8 23.1 63.9 28.1 1.4 1 5.3 3.3 8.6 5.1 3.3 1.8 11.4 6.9 18 11.2 11.3 7.5 18.3 12.4 41.6 29.5 19.9 14.6 37.7 26 72.4 46.5 25.8 15.2 58.6 31 83.5 40.3 6.9 2.5 14.3 5.3 16.5 6.2 2.2 0.8 4.9 1.9 6 2.3 1.1 0.4 3.7 1.5 5.8 2.4 2.1 0.9 4.4 1.6 5.2 1.6 0.9 0 2.3 0.4 3.3 1 1.7 0.9 9.5 3.4 26.2 8.3 12.8 3.7 16.7 4.7 45.3 11.8 9.5 2.3 51.2 10.4 61.7 11.9 4.1 0.6 10 1.5 13 2 3 0.4 9.1 1.3 13.5 1.9 4.4 0.7 9.9 1.6 12.3 2.1 2.3 0.6 6.5 1 9.2 1 2.7 0 7.5 0.7 10.7 1.5 3.1 0.8 8.3 1.5 11.5 1.5 3.2 0 5.8 0.4 5.8 1 0 1.3 -13 1.3 -16.4 0 -2.3 -0.8 -10.6 -2 -29.6 -4 -12.6 -1.4 -41 -6.1 -53.8 -9 -2.3 -0.6 -5.2 -1 -6.5 -1 -1.2 0 -5.6 -0.7 -9.7 -1.5 -4.1 -0.9 -9.5 -2 -12 -2.5 -8.1 -1.7 -26.3 -6 -34 -8.1 -4.1 -1.2 -9.3 -2.5 -11.5 -2.9 -2.2 -0.4 -6.5 -1.5 -9.5 -2.4 -3 -0.9 -6.8 -2.1 -8.5 -2.6 -1.6 -0.4 -5.5 -1.6 -8.5 -2.5 -3 -0.8 -6.8 -2 -8.5 -2.4 -4.6 -1.3 -25.7 -8.7 -38 -13.3 -27.9 -10.4 -65.8 -29.1 -94.9 -46.8 -8.3 -5 -82.1 -53.5 -102.8 -67.5 -2 -1.4 -3.9 -2.5 -4.2 -2.5 -0.4 0 -4.6 -2.4 -9.4 -5.4 -4.8 -2.9 -13 -7.6 -18.2 -10.3 -5.2 -2.8 -13.3 -7 -18 -9.5 -4.7 -2.5 -14.6 -6.9 -22 -9.8 -7.4 -2.9 -14.4 -5.6 -15.5 -6 -3.9 -1.5 -11.1 -3.9 -18.4 -6 -33.5 -9.8 -62.2 -13.6 -94.9 -12.7 -37.4 1.1 -68.2 6.2 -95.2 15.9 -4.7 1.6 -9.9 3.3 -11.5 3.7 -9.9 2.5 -40.3 16.6 -61.8 28.8 -11.8 6.7 -58.1 35.8 -67.2 42.3 -4.4 3.1 -11.1 7.7 -15 10.2 -3.8 2.5 -14.2 9.2 -23 15 -8.8 5.8 -20.5 13.2 -26 16.5 -9.3 5.6 -47.8 26.3 -48.8 26.3 -0.3 0 -7.2 3 -15.4 6.6 -19.9 8.8 -20.2 8.9 -25.3 10.9 -6.8 2.7 -35.1 12.5 -38.5 13.5 -1.6 0.4 -5 1.6 -7.5 2.5 -2.5 0.9 -5.8 2.1 -7.5 2.5 -1.6 0.4 -5.7 1.6 -9 2.5 -3.3 0.9 -7.6 2.1 -9.5 2.5 -1.9 0.5 -10.7 2.7 -19.5 4.9 -15.2 3.8 -36.6 8.6 -48.5 11 -11.8 2.3 -60 10 -69.5 11.1 -5.5 0.6 -11.6 1.6 -13.6 2.1 -3.9 1 -18.6 1.3 -17.7 0.3z"/>
 </g>
</svg>